<svg version="1.1" viewBox="50.0 100 900.0 550.0" fill="none" stroke="none" stroke-linecap="square" stroke-miterlimit="10" xmlns:xlink="http://www.w3.org/1999/xlink" xmlns="http://www.w3.org/2000/svg"><clipPath id="p.0"><path d="m0 0l960.0 0l0 720.0l-960.0 0l0 -720.0z" clip-rule="nonzero"/></clipPath><g clip-path="url(#p.0)"><path fill="#000000" fill-opacity="0.0" d="m0 0l960.0 0l0 720.0l-960.0 0z" fill-rule="evenodd"/><path fill="#cfe2f3" d="m67.338585 213.30746l0 0c0 -44.704636 39.723267 -80.944885 88.7244 -80.944885l0 0c49.001144 0 88.72441 36.24025 88.72441 80.944885l0 0c0 44.70462 -39.723267 80.944885 -88.72441 80.944885l0 0c-49.001137 0 -88.7244 -36.240265 -88.7244 -80.944885z" fill-rule="evenodd"/><path stroke="#000000" stroke-width="2.0" stroke-linejoin="round" stroke-linecap="butt" d="m67.338585 213.30746l0 0c0 -44.704636 39.723267 -80.944885 88.7244 -80.944885l0 0c49.001144 0 88.72441 36.24025 88.72441 80.944885l0 0c0 44.70462 -39.723267 80.944885 -88.72441 80.944885l0 0c-49.001137 0 -88.7244 -36.240265 -88.7244 -80.944885z" fill-rule="evenodd"/><path fill="#000000" d="m135.95897 226.65923l0 -26.734375l3.53125 0l0 23.578125l13.171875 0l0 3.15625l-16.703125 0zm20.768814 0l0 -26.734375l10.03125 0q3.0625 0 4.90625 0.8125q1.859375 0.8125 2.90625 2.5q1.046875 1.6875 1.046875 3.53125q0 1.71875 -0.9375 3.234375q-0.921875 1.5 -2.796875 2.4375q2.421875 0.703125 3.71875 2.421875q1.3125 1.71875 1.3125 4.046875q0 1.875 -0.796875 3.5q-0.796875 1.609375 -1.96875 2.484375q-1.15625 0.875 -2.921875 1.328125q-1.75 0.4375 -4.3125 0.4375l-10.1875 0zm3.53125 -15.5l5.78125 0q2.359375 0 3.375 -0.3125q1.359375 -0.390625 2.03125 -1.3125q0.6875 -0.9375 0.6875 -2.34375q0 -1.34375 -0.640625 -2.34375q-0.640625 -1.015625 -1.828125 -1.390625q-1.171875 -0.375 -4.0625 -0.375l-5.34375 0l0 8.078125zm0 12.34375l6.65625 0q1.71875 0 2.40625 -0.125q1.234375 -0.21875 2.046875 -0.71875q0.828125 -0.515625 1.34375 -1.484375q0.53125 -0.984375 0.53125 -2.265625q0 -1.5 -0.765625 -2.59375q-0.765625 -1.109375 -2.125 -1.546875q-1.359375 -0.453125 -3.90625 -0.453125l-6.1875 0l0 9.1875z" fill-rule="nonzero"/><path fill="#cfe2f3" d="m732.9861 213.30746l0 0c0 -44.704636 39.723267 -80.944885 88.724365 -80.944885l0 0c49.00116 0 88.72443 36.24025 88.72443 80.944885l0 0c0 44.70462 -39.723267 80.944885 -88.72443 80.944885l0 0c-49.0011 0 -88.724365 -36.240265 -88.724365 -80.944885z" fill-rule="evenodd"/><path stroke="#000000" stroke-width="2.0" stroke-linejoin="round" stroke-linecap="butt" d="m732.9861 213.30746l0 0c0 -44.704636 39.723267 -80.944885 88.724365 -80.944885l0 0c49.00116 0 88.72443 36.24025 88.72443 80.944885l0 0c0 44.70462 -39.723267 80.944885 -88.72443 80.944885l0 0c-49.0011 0 -88.724365 -36.240265 -88.724365 -80.944885z" fill-rule="evenodd"/><path fill="#000000" d="m800.57623 226.65923l0 -26.734375l3.53125 0l0 23.578125l13.171875 0l0 3.15625l-16.703125 0zm20.971924 0l0 -26.734375l11.84375 0q3.578125 0 5.4375 0.71875q1.859375 0.71875 2.96875 2.546875q1.125 1.828125 1.125 4.03125q0 2.84375 -1.84375 4.796875q-1.84375 1.953125 -5.6875 2.484375q1.390625 0.671875 2.125 1.328125q1.546875 1.421875 2.9375 3.546875l4.65625 7.28125l-4.453125 0l-3.546875 -5.5625q-1.546875 -2.40625 -2.546875 -3.671875q-1.0 -1.28125 -1.796875 -1.796875q-0.796875 -0.515625 -1.609375 -0.71875q-0.609375 -0.125 -1.96875 -0.125l-4.109375 0l0 11.875l-3.53125 0zm3.53125 -14.9375l7.609375 0q2.421875 0 3.78125 -0.5q1.375 -0.5 2.078125 -1.59375q0.71875 -1.109375 0.71875 -2.40625q0 -1.890625 -1.375 -3.109375q-1.375 -1.234375 -4.34375 -1.234375l-8.46875 0l0 8.84375z" fill-rule="nonzero"/><path fill="#cfe2f3" d="m403.82233 560.35516l0 0c0 -44.70465 39.723267 -80.944916 88.724396 -80.944916l0 0c49.00113 0 88.724396 36.240265 88.724396 80.944916l0 0c0 44.70459 -39.723267 80.944824 -88.724396 80.944824l0 0c-49.00113 0 -88.724396 -36.240234 -88.724396 -80.944824z" fill-rule="evenodd"/><path stroke="#000000" stroke-width="2.0" stroke-linejoin="round" stroke-linecap="butt" d="m403.82233 560.35516l0 0c0 -44.70465 39.723267 -80.944916 88.724396 -80.944916l0 0c49.00113 0 88.724396 36.240265 88.724396 80.944916l0 0c0 44.70459 -39.723267 80.944824 -88.724396 80.944824l0 0c-49.00113 0 -88.724396 -36.240234 -88.724396 -80.944824z" fill-rule="evenodd"/><path fill="#000000" d="m490.8287 573.7069l0 -23.578125l-8.8125 0l0 -3.15625l21.1875 0l0 3.15625l-8.84375 0l0 23.578125l-3.53125 0z" fill-rule="nonzero"/><path fill="#000000" fill-opacity="0.0" d="m244.7874 213.30746l488.18896 0" fill-rule="evenodd"/><path stroke="#000000" stroke-width="2.0" stroke-linejoin="round" stroke-linecap="butt" d="m244.7874 213.30745l476.18896 0" fill-rule="evenodd"/><path fill="#000000" stroke="#000000" stroke-width="2.0" stroke-linecap="butt" d="m720.9764 216.61092l9.076172 -3.3034668l-9.076172 -3.3034515z" fill-rule="evenodd"/><path fill="#000000" fill-opacity="0.0" d="m821.71045 294.25235l-240.44092 266.1102" fill-rule="evenodd"/><path stroke="#000000" stroke-width="2.0" stroke-linejoin="round" stroke-linecap="butt" d="m821.71045 294.25235l-232.39594 257.2064" fill-rule="evenodd"/><path fill="#000000" stroke="#000000" stroke-width="2.0" stroke-linecap="butt" d="m586.86334 549.244l-3.633667 8.949158l8.53595 -4.5197754z" fill-rule="evenodd"/><path fill="#000000" fill-opacity="0.0" d="m403.82233 560.35516l-247.74803 -266.11026" fill-rule="evenodd"/><path stroke="#000000" stroke-width="2.0" stroke-linejoin="round" stroke-linecap="butt" d="m403.82236 560.35516l-239.57121 -257.3274" fill-rule="evenodd"/><path fill="#000000" stroke="#000000" stroke-width="2.0" stroke-linecap="butt" d="m166.66898 300.7768l-8.602386 -4.3919373l3.7667236 8.893921z" fill-rule="evenodd"/><path fill="#000000" fill-opacity="0.0" d="m555.28436 503.11847l203.68506 -232.56693" fill-rule="evenodd"/><path stroke="#000000" stroke-width="2.0" stroke-linejoin="round" stroke-linecap="butt" d="m555.28436 503.11847l195.77887 -223.53964" fill-rule="evenodd"/><path fill="#000000" stroke="#000000" stroke-width="2.0" stroke-linecap="butt" d="m753.5483 281.7553l3.494751 -9.004272l-8.464966 4.6512756z" fill-rule="evenodd"/><path fill="#000000" fill-opacity="0.0" d="m758.97284 156.07079l-540.1575 0" fill-rule="evenodd"/><path stroke="#000000" stroke-width="2.0" stroke-linejoin="round" stroke-linecap="butt" d="m758.97284 156.07079l-528.1575 0" fill-rule="evenodd"/><path fill="#000000" stroke="#000000" stroke-width="2.0" stroke-linecap="butt" d="m230.81537 152.76732l-9.076187 3.3034668l9.076187 3.3034668z" fill-rule="evenodd"/><path fill="#000000" fill-opacity="0.0" d="m454.08038 198.53915l101.19684 0l0 70.897644l-101.19684 0z" fill-rule="evenodd"/><path fill="#000000" d="m475.56476 253.39091l0 -26.734375l3.28125 0l0 15.25l7.765625 -7.875l4.25 0l-7.40625 7.171875l8.15625 12.1875l-4.046875 0l-6.40625 -9.90625l-2.3125 2.234375l0 7.671875l-3.28125 0zm30.09375 0l-3.28125 0l0 -20.921875q-1.171875 1.140625 -3.109375 2.28125q-1.921875 1.125 -3.453125 1.6875l0 -3.171875q2.75 -1.296875 4.8125 -3.140625q2.0625 -1.84375 2.921875 -3.578125l2.109375 0l0 26.84375z" fill-rule="nonzero"/><path fill="#000000" fill-opacity="0.0" d="m454.08038 93.61796l101.19684 0l0 70.89764l-101.19684 0z" fill-rule="evenodd"/><path fill="#000000" d="m475.56476 148.46973l0 -26.734375l3.28125 0l0 15.25l7.765625 -7.875l4.25 0l-7.40625 7.171875l8.15625 12.1875l-4.046875 0l-6.40625 -9.90625l-2.3125 2.234375l0 7.671875l-3.28125 0zm34.984375 -3.15625l0 3.15625l-17.671875 0q-0.03125 -1.1875 0.390625 -2.28125q0.671875 -1.796875 2.15625 -3.546875q1.484375 -1.75 4.296875 -4.0625q4.359375 -3.5625 5.890625 -5.640625q1.53125 -2.09375 1.53125 -3.96875q0 -1.9375 -1.40625 -3.28125q-1.390625 -1.34375 -3.625 -1.34375q-2.375 0 -3.796875 1.421875q-1.421875 1.421875 -1.4375 3.9375l-3.375 -0.34375q0.34375 -3.78125 2.609375 -5.75q2.265625 -1.984375 6.078125 -1.984375q3.84375 0 6.078125 2.140625q2.25 2.125 2.25 5.28125q0 1.609375 -0.65625 3.15625q-0.65625 1.546875 -2.1875 3.265625q-1.515625 1.71875 -5.046875 4.703125q-2.96875 2.484375 -3.8125 3.375q-0.828125 0.875 -1.375 1.765625l13.109375 0z" fill-rule="nonzero"/><path fill="#000000" fill-opacity="0.0" d="m692.77606 393.75772l101.19684 0l0 70.897644l-101.19684 0z" fill-rule="evenodd"/><path fill="#000000" d="m714.26044 448.6095l0 -26.734375l3.28125 0l0 15.25l7.765625 -7.875l4.25 0l-7.40625 7.171875l8.15625 12.1875l-4.046875 0l-6.40625 -9.90625l-2.3125 2.234375l0 7.671875l-3.28125 0zm17.75 -7.0625l3.28125 -0.4375q0.578125 2.796875 1.921875 4.03125q1.359375 1.21875 3.3125 1.21875q2.328125 0 3.921875 -1.59375q1.59375 -1.609375 1.59375 -3.984375q0 -2.25 -1.484375 -3.71875q-1.46875 -1.46875 -3.75 -1.46875q-0.9375 0 -2.3125 0.359375l0.359375 -2.875q0.328125 0.03125 0.53125 0.03125q2.09375 0 3.765625 -1.09375q1.6875 -1.09375 1.6875 -3.375q0 -1.796875 -1.234375 -2.984375q-1.21875 -1.1875 -3.140625 -1.1875q-1.921875 0 -3.203125 1.203125q-1.265625 1.203125 -1.640625 3.609375l-3.28125 -0.578125q0.609375 -3.3125 2.734375 -5.125q2.140625 -1.8125 5.3125 -1.8125q2.1875 0 4.03125 0.9375q1.84375 0.9375 2.8125 2.5625q0.984375 1.625 0.984375 3.453125q0 1.734375 -0.9375 3.15625q-0.921875 1.421875 -2.75 2.25q2.375 0.546875 3.6875 2.28125q1.3125 1.71875 1.3125 4.3125q0 3.5 -2.5625 5.9375q-2.546875 2.421875 -6.453125 2.421875q-3.515625 0 -5.84375 -2.09375q-2.328125 -2.09375 -2.65625 -5.4375z" fill-rule="nonzero"/><path fill="#000000" fill-opacity="0.0" d="m583.478 339.0186l101.19684 0l0 70.897644l-101.19684 0z" fill-rule="evenodd"/><path fill="#000000" d="m604.9624 393.87036l0 -26.734375l3.28125 0l0 15.25l7.765625 -7.875l4.25 0l-7.40625 7.171875l8.15625 12.1875l-4.046875 0l-6.40625 -9.90625l-2.3125 2.234375l0 7.671875l-3.28125 0zm28.265625 0l0 -6.40625l-11.609375 0l0 -3.0l12.203125 -17.328125l2.6875 0l0 17.328125l3.609375 0l0 3.0l-3.609375 0l0 6.40625l-3.28125 0zm0 -9.40625l0 -12.0625l-8.375 12.0625l8.375 0z" fill-rule="nonzero"/><path fill="#000000" fill-opacity="0.0" d="m214.31915 400.08484l101.19684 0l0 70.897644l-101.19684 0z" fill-rule="evenodd"/><path fill="#000000" d="m235.80353 454.9366l0 -26.734375l3.28125 0l0 15.25l7.765625 -7.875l4.25 0l-7.40625 7.171875l8.15625 12.1875l-4.046875 0l-6.40625 -9.90625l-2.3125 2.234375l0 7.671875l-3.28125 0zm17.734375 -7.0l3.453125 -0.296875q0.375 2.515625 1.765625 3.78125q1.40625 1.265625 3.375 1.265625q2.375 0 4.015625 -1.78125q1.640625 -1.78125 1.640625 -4.734375q0 -2.8125 -1.578125 -4.4375q-1.578125 -1.625 -4.140625 -1.625q-1.578125 0 -2.859375 0.71875q-1.28125 0.71875 -2.0 1.875l-3.078125 -0.40625l2.578125 -13.71875l13.296875 0l0 3.125l-10.671875 0l-1.4375 7.1875q2.40625 -1.671875 5.046875 -1.671875q3.5 0 5.90625 2.421875q2.421875 2.421875 2.421875 6.234375q0 3.625 -2.125 6.265625q-2.5625 3.25 -7.015625 3.25q-3.65625 0 -5.96875 -2.03125q-2.296875 -2.046875 -2.625 -5.421875z" fill-rule="nonzero"/></g></svg>